<!-- <?xml version="1.0" encoding="UTF-8" standalone="no"?> -->
<svg enable-background="new 0 0 470 470" xmlns="http://www.w3.org/2000/svg" xmlns:xlink="http://www.w3.org/1999/xlink" version="1.1" viewBox="0 0 470 470">
<circle cy="406" cx="204" r="7.5"/>
<circle cy="318" cx="303" r="7.5"/>
<circle cy="294" cx="274" r="7.5"/>
<path d="m352 276c-7.97-19.2-23-34.2-42.2-42.2-9.54-3.95-19.6-5.95-29.8-5.95-13 0-25.8 3.29-37.1 9.42v-26c0-4.14-3.36-7.5-7.5-7.5s-7.5 3.36-7.5 7.5v26c-11.4-6.14-24.1-9.42-37.1-9.42-10.2 0-20.3 2-29.8 5.95-19.2 7.97-34.2 23-42.2 42.2-7.97 19.2-7.97 40.4 0 59.7l43.3 104c7.61 18.4 25.4 30.2 45.3 30.2 6.44 0 12.7-1.26 18.7-3.74 3.34-1.38 6.49-3.11 9.41-5.16 2.92 2.05 6.07 3.78 9.41 5.16 5.99 2.48 12.3 3.74 18.7 3.74 19.9 0 37.7-11.9 45.3-30.2l43.3-104c7.97-19.2 7.97-40.4 5.68e-14 -59.7zm-13.9 53.9l-43.3 104c-5.28 12.7-17.6 21-31.4 21-4.46 0-8.83-0.874-13-2.6-3.73-1.55-7.12-3.71-10.1-6.43-1.44-1.33-3.26-1.99-5.09-1.99s-3.65 0.664-5.09 1.99c-2.94 2.72-6.32 4.88-10.1 6.43-4.16 1.72-8.53 2.6-13 2.6-13.8 0-26.1-8.24-31.4-21l-43.3-104c-6.44-15.5-6.44-32.7 0-48.2s18.5-27.6 34.1-34.1c7.71-3.19 15.8-4.81 24.1-4.81 14.5 0 28.7 5.06 39.9 14.2 0.341 0.273 0.681 0.502 1.04 0.706 0.024 0.014 0.047 0.03 0.071 0.043 0.337 0.187 0.692 0.343 1.06 0.477 0.054 0.02 0.107 0.041 0.161 0.059 0.35 0.119 0.712 0.213 1.08 0.279 0.062 0.011 0.125 0.019 0.187 0.029 0.373 0.057 0.753 0.096 1.14 0.096s0.769-0.039 1.14-0.096c0.063-0.01 0.125-0.017 0.187-0.029 0.372-0.067 0.733-0.16 1.08-0.279 0.054-0.018 0.107-0.039 0.161-0.059 0.366-0.134 0.722-0.29 1.06-0.477 0.024-0.013 0.047-0.03 0.071-0.043 0.357-0.203 0.697-0.432 1.01-0.689 11.3-9.19 25.4-14.2 39.9-14.2 8.26 0 16.4 1.62 24.1 4.81 15.5 6.44 27.6 18.5 34.1 34.1s6.44 32.7-0.002 48.2z"/>
<path d="m120 238c4.14 0 7.5-3.36 7.5-7.5v-223c0-4.14-3.36-7.5-7.5-7.5s-7.5 3.36-7.5 7.5v223c0 4.14 3.36 7.5 7.5 7.5z"/>
<path d="m177 123c4.14 0 7.5-3.36 7.5-7.5v-108c0-4.14-3.36-7.5-7.5-7.5s-7.5 3.36-7.5 7.5v108c0 4.14 3.36 7.5 7.5 7.5z"/>
<path d="m177 213c4.14 0 7.5-3.36 7.5-7.5v-60c0-4.14-3.36-7.5-7.5-7.5s-7.5 3.36-7.5 7.5v60c0 4.14 3.36 7.5 7.5 7.5z"/>
<path d="m235 188c4.14 0 7.5-3.36 7.5-7.5v-173c0-4.14-3.36-7.5-7.5-7.5s-7.5 3.36-7.5 7.5v173c0 4.14 3.36 7.5 7.5 7.5z"/>
<path d="m293 213c4.14 0 7.5-3.36 7.5-7.5v-198c0-4.14-3.36-7.5-7.5-7.5s-7.5 3.36-7.5 7.5v198c0 4.14 3.36 7.5 7.5 7.5z"/>
<path d="m350 75c4.14 0 7.5-3.36 7.5-7.5v-60c0-4.14-3.36-7.5-7.5-7.5s-7.5 3.36-7.5 7.5v60c0 4.14 3.36 7.5 7.5 7.5z"/>
<path d="m350 238c4.14 0 7.5-3.36 7.5-7.5v-133c0-4.14-3.36-7.5-7.5-7.5s-7.5 3.36-7.5 7.5v133c0 4.14 3.36 7.5 7.5 7.5z"/>
</svg>
