<!-- <?xml version="1.0" encoding="UTF-8" standalone="no"?> -->
<svg style="enable-background:new 0 0 357.507 357.507" xmlns="http://www.w3.org/2000/svg" xml:space="preserve" viewBox="0 0 357.507 357.507" version="1.1" y="0px" x="0px" xmlns:xlink="http://www.w3.org/1999/xlink">
		<path d="m358 248v46h-151v-46h151zm-168-171c0-4.51 3.68-8.19 8.18-8.19 4.53 0 8.21 3.67 8.21 8.19v9.62h-16.4v-9.6zm-4 0v10.4h-20.5v-10.4c0-6.71-5.47-12.2-12.2-12.2-6.71 0-12.2 5.46-12.2 12.2v10.4h-9.78v-46.1h89.5v46h-10.5v-10.3c0-6.71-5.48-12.2-12.2-12.2s-14 5.5-14 12.2zm-41 0c0-4.51 3.67-8.19 8.19-8.19 4.51 0 8.2 3.67 8.2 8.19v9.62h-16.4v-9.62zm56 41.3v20.9h-50.3v-20.9h50zm0 27v20.1h-50.3v-20.1h50zm0 26v20.1h-50.3v-20.1h50zm0 25v17.6h-50.3v-17.6h50zm0 24v22.7h-50.3v-22.7h50zm0 28v20.3h-50.3v-20.3h50zm0 26v20h-50.3v-20h50zm0 26v16.4h-50.3v-16.4h50zm-50-188v-19.2h50.3v19.3h-50zm56 27v-46.2h46.6v46h-47zm0 52v-46h81.3v46h-81zm0 51v-46h115v46h-115zm-108-103v-46.2h45.3v46h-45.5zm-34.8 52v-46h80.2v46h-80.3zm-28.4 51v-46h109v46h-109zm-36.3 52v-46h145v46h-145z"/>
</svg>
