<!-- <?xml version="1.0" encoding="UTF-8" standalone="no"?> -->
<svg enable-background="new 0 0 470 470" xmlns="http://www.w3.org/2000/svg" xmlns:xlink="http://www.w3.org/1999/xlink" version="1.1" viewBox="0 0 470 470">
<path d="m330 63.1h-15c-4.14 0-7.5 3.36-7.5 7.5s3.36 7.5 7.5 7.5h15c8.59 0 15.6 6.99 15.6 15.6v346c0 8.59-6.99 15.6-15.6 15.6h-265c-8.59 0-15.6-6.99-15.6-15.6v-346c0-8.59 6.99-15.6 15.6-15.6h15c4.14 0 7.5-3.36 7.5-7.5s-3.36-7.5-7.5-7.5h-15c-16.9 0-30.6 13.7-30.6 30.6v346c0 16.9 13.7 30.6 30.6 30.6h265c16.9 0 30.6-13.7 30.6-30.6v-346c0-16.9-13.7-30.6-30.6-30.6z"/>
<path d="m436 396v-250c0-0.345-0.031-0.682-0.077-1.02-0.01-0.074-0.021-0.147-0.034-0.221-0.059-0.352-0.135-0.698-0.241-1.03l-17.5-56.3c-0.974-3.14-3.88-5.28-7.16-5.28s-6.19 2.14-7.16 5.28l-17.5 56.3c-0.105 0.333-0.181 0.678-0.24 1.03-0.012 0.074-0.024 0.147-0.034 0.221-0.045 0.333-0.076 0.669-0.076 1.01v273c0 11.4 9.25 20.6 20.6 20.6h8.75c11.4 0 20.6-9.25 20.6-20.6 0.001 0.001 0.001-23.7 0.001-23.7zm-25-281l7.32 23.6h-14.6l7.32-23.6zm-10 38.6h20v235h-20v-235zm20 266c0 3.1-2.52 5.62-5.62 5.62h-8.75c-3.1 0-5.62-2.52-5.62-5.62v-16.2h20v16.2z"/>
<path d="m275 347h-155c-4.14 0-7.5 3.36-7.5 7.5s3.36 7.5 7.5 7.5h155c4.14 0 7.5-3.36 7.5-7.5s-3.36-7.5-7.5-7.5z"/>
<path d="m198 377h-77.4c-4.14 0-7.5 3.36-7.5 7.5s3.36 7.5 7.5 7.5h77.4c4.14 0 7.5-3.36 7.5-7.5s-3.36-7.5-7.5-7.5z"/>
<path d="m64.5 101v332c0 4.14 3.36 7.5 7.5 7.5h251c4.14 0 7.5-3.36 7.5-7.5v-332c0-4.14-3.36-7.5-7.5-7.5h-30.6v-22.5c0-16.9-13.7-30.6-30.6-30.6h-17.5c-3.61-22.6-23.3-40-46.9-40s-43.3 17.4-46.9 40h-17.5c-16.9 0-30.6 13.7-30.6 30.6v22.5h-30.6c-4.14-0.001-7.5 3.36-7.5 7.5zm53.1-30c0-8.59 6.99-15.6 15.6-15.6h24.4c4.14 0 7.5-3.36 7.5-7.5 0.001-17.9 14.6-32.5 32.5-32.5s32.5 14.6 32.5 32.5c0 4.14 3.36 7.5 7.5 7.5h24.4c8.59 0 15.6 6.99 15.6 15.6v52.5h-160v-52.5zm-38.1 37.5h23.1v22.5c0 4.14 3.36 7.5 7.5 7.5h175c4.14 0 7.5-3.36 7.5-7.5v-22.5h23.1v317h-236v-317z"/>
<path d="m198 35c-4.14 0-7.5 3.36-7.5 7.5v10c0 4.14 3.36 7.5 7.5 7.5s7.5-3.36 7.5-7.5v-10c0-4.14-3.36-7.5-7.5-7.5z"/>
<path d="m275 171h-10c-4.14 0-7.5 3.36-7.5 7.5s3.36 7.5 7.5 7.5h2.5v90.7h-2.5c-4.14 0-7.5 3.36-7.5 7.5s3.36 7.5 7.5 7.5h10c4.14 0 7.5-3.36 7.5-7.5v-106c0-4.14-3.36-7.5-7.5-7.5z"/>
<path d="m120 332h115c4.14 0 7.5-3.36 7.5-7.5v-10c0-4.14-3.36-7.5-7.5-7.5s-7.5 3.36-7.5 7.5v2.5h-99.9v-2.5c0-4.14-3.36-7.5-7.5-7.5s-7.5 3.36-7.5 7.5v10c1.42e-14 4.14 3.36 7.5 7.5 7.5z"/>
<path d="m120 292h115c4.14 0 7.5-3.36 7.5-7.5v-106c0-4.14-3.36-7.5-7.5-7.5h-115c-4.14 0-7.5 3.36-7.5 7.5v20c0 4.14 3.36 7.5 7.5 7.5s7.5-3.36 7.5-7.5v-12.5h99.9v90.7h-99.9v-48.2c0-4.14-3.36-7.5-7.5-7.5s-7.5 3.36-7.5 7.5v55.7c1.42e-14 4.14 3.36 7.5 7.5 7.5z"/>
</svg>
