<!-- <?xml version="1.0" encoding="UTF-8" standalone="no"?> -->
<svg enable-background="new 0 0 470.002 470.002" xmlns="http://www.w3.org/2000/svg" xmlns:xlink="http://www.w3.org/1999/xlink" version="1.1" viewBox="0 0 470.002 470.002">
<path d="m384 397l-2.74-8.03c1.46-3.53 2.27-7.39 2.27-11.4 0-11.1-6.05-20.8-15-26l-44.8-131h32v2.5c0 4.14 3.36 7.5 7.5 7.5s7.5-3.36 7.5-7.5v-20c0-4.14-3.36-7.5-7.5-7.5s-7.5 3.36-7.5 7.5v2.5h-37.1l-38.3-112c-0.173-0.506-0.401-0.986-0.672-1.44 0.295-2.08 0.452-4.2 0.452-6.35 0-22.3-16.2-40.8-37.5-44.4v-33.1c0-4.14-3.36-7.5-7.5-7.5s-7.5 3.36-7.5 7.5v33.1c-21.3 3.58-37.5 22.1-37.5 44.4 0 2.71 0.246 5.38 0.713 7.98l-38.2 112h-38.1v-2.5c0-4.14-3.36-7.5-7.5-7.5s-7.5 3.36-7.5 7.5v20c0 4.14 3.36 7.5 7.5 7.5s7.5-3.36 7.5-7.5v-2.5h33l-23.7 69.6c-1.34 3.92 0.758 8.18 4.68 9.52 0.802 0.273 1.62 0.403 2.42 0.403 3.12 0 6.04-1.96 7.1-5.08l61.9-181c3.15 3.97 6.98 7.42 11.4 10.2l-103 304c-2.61-2.13-4.74-4.83-6.14-7.92-2.41-5.33-2.53-11.3-0.323-16.7 0.053-0.13 0.102-0.262 0.147-0.395l26.9-78.9c1.34-3.92-0.758-8.18-4.68-9.52s-8.18 0.759-9.52 4.68l-11.3 33.1c-9.62 5.21-15.7 15.2-15.7 26.3 0 4.18 0.883 8.3 2.56 12.1l-2.45 7.17c-3.67 9.22-3.45 19.3 0.642 28.3 3.12 6.89 8.32 12.7 14.8 16.5l-6.34 18.6c-1.34 3.92 0.758 8.18 4.68 9.52 0.802 0.273 1.62 0.403 2.42 0.403 3.12 0 6.04-1.96 7.1-5.08l21-61.5c9.32-5.29 15.2-15.2 15.2-26.1 0-3.99-0.806-7.94-2.34-11.6l49.7-146h33.6v12.5c0 4.14 3.36 7.5 7.5 7.5s7.5-3.36 7.5-7.5v-12.5h33.6l49.7 146c-1.5 3.57-2.34 7.49-2.34 11.6 0 11.2 6.12 20.9 15.2 26.1l21 61.5c1.06 3.12 3.98 5.08 7.1 5.08 0.802 0 1.62-0.13 2.42-0.403 3.92-1.34 6.02-5.6 4.68-9.52l-6.34-18.6c15-8.92 22.3-27.5 16.5-44.6zm-45.5-19.5c0-8.27 6.73-15 15-15s15 6.73 15 15-6.73 15-15 15-15-6.73-15-15zm12.8-29.9c-5.22 0.382-10.1 2.1-14.2 4.82l-78.1-229c4.72-2.95 8.8-6.72 12.1-11.1l80.3 235zm-109-225c0 4.14-3.36 7.5-7.5 7.5s-7.5-3.36-7.5-7.5c0-0.513 0.052-1.01 0.151-1.5 0.705-3.43 3.73-6 7.35-6s6.64 2.57 7.35 5.99c0.102 0.499 0.154 1 0.154 1.51zm-7.5-67.5c16.5 0 30 13.5 30 30 0 9.6-4.56 18.4-12 24-4.11-5.46-10.6-9-18-9s-13.9 3.54-18 9c-7.46-5.58-12-14.4-12-24 0-16.5 13.5-30 30-30zm7.5 150v-12.5c0-4.14-3.36-7.5-7.5-7.5s-7.5 3.36-7.5 7.5v12.5h-28.4l22.1-64.8c3.82 2.99 8.63 4.78 13.8 4.78 5.22 0 10-1.79 13.8-4.78l22.1 64.8h-28.4zm120 222l-6.64-19.5c5.21-0.402 10-2.14 14.2-4.86 2.75 9.06-0.483 18.7-7.53 24.3z"/>
</svg>
