<!-- <?xml version="1.0" encoding="UTF-8" standalone="no"?> -->
<svg enable-background="new 0 0 470.003 470.003" xmlns="http://www.w3.org/2000/svg" xmlns:xlink="http://www.w3.org/1999/xlink" version="1.1" viewBox="0 0 470.003 470.003">
<path d="m368 455h-3.26c-3.48-17.1-18.6-30-36.7-30h-65v-15.7c24.7-0.848 49.7-6.04 73.8-16 1.84-0.761 3.3-2.22 4.06-4.06 0.762-1.84 0.762-3.9 0-5.74l-3.83-9.24c-1.58-3.83-5.97-5.64-9.8-4.06s-5.64 5.97-4.06 9.8l0.902 2.18c-20.1 7.45-40.7 11.4-61.1 12.2v-2.37c0-4.14-3.36-7.5-7.5-7.5s-7.5 3.36-7.5 7.5v2.34c-74.7-2.95-145-48.3-175-122-40.7-98.3 4.11-211 100-255l0.903 2.18c1.58 3.83 5.97 5.64 9.8 4.06s5.64-5.97 4.06-9.8l-3.83-9.24c-1.58-3.83-5.97-5.64-9.8-4.06-108 44.8-160 169-115 278 32.8 79.2 108 128 189 131v15.7h-65c-18.1 0-33.3 12.9-36.7 30h-3.26c-4.14 0-7.5 3.36-7.5 7.5s3.36 7.5 7.5 7.5h225c4.14 0 7.5-3.36 7.5-7.5s-3.36-7.5-7.5-7.5zm-185-15h145c9.78 0 18.1 6.27 21.2 15h-187c3.1-8.73 11.4-15 21.2-15z"/>
<path d="m410 272c20.6-42.7 23.6-93.7 4.06-141-26.8-64.7-89.4-107-159-107-22.7 0-44.8 4.43-65.9 13.2-42.6 17.6-75.7 50.8-93.4 93.4-17.6 42.6-17.6 89.5 0.001 132 26.8 64.7 89.4 107 159 107 22.7 0 44.8-4.43 65.9-13.2 40-16.6 70.5-46.6 88.4-82.6 0.359-0.533 0.661-1.12 0.88-1.75 0.015-0.047 0.025-0.095 0.04-0.142zm-11.2-11.5c-12.5-3.75-25.4-6.04-38.2-6.87-0.692-9.08-1.95-18.5-3.76-28.1-0.766-4.07-4.69-6.75-8.76-5.98-4.07 0.767-6.75 4.69-5.98 8.76 1.63 8.64 2.75 17 3.41 25.1-18.7 0.428-37.3 3.89-55.1 10.4l-25.9-62.5 62.3-25.8c3.14 8.1 5.95 16.3 8.37 24.5 1.18 3.97 5.35 6.24 9.32 5.06s6.24-5.35 5.06-9.32c-2.57-8.66-5.55-17.4-8.89-26l62.3-25.8c14.1 39.2 11.6 80.8-4.12 117zm-210-27.8l62.3-25.8 25.9 62.5c-17.2 8-32.8 18.7-46.3 31.6-16-18.8-30.4-42.2-41.9-68.3zm133-71.2l-62.3 25.8-25.9-62.5c17.2-8 32.8-18.7 46.3-31.6 16 18.8 30.4 42.2 41.9 68.3zm-157-49.3c1.96-27.6 10.5-47.4 24.2-56.9l25.4 61.4c-16.2 5.82-33.1 8.9-50 9.25-0.037-4.69 0.096-9.28 0.414-13.7zm63.5-1.25l-25.4-61.4c16.4-2.96 36.5 5.06 57.4 23.2 3.38 2.93 6.72 6.08 10 9.42-12.2 11.7-26.4 21.5-41.9 28.8zm-8.11 19.6l25.9 62.5-62.3 25.8c-10.3-26.6-16.7-53.3-18.7-77.9 18.7-0.425 37.3-3.9 55.1-10.4zm103 208l-25.4-61.4c16.2-5.81 33.1-8.9 50-9.25 0.268 33.5-8.48 59.3-24.6 70.7zm-39.3-55.7l25.4 61.4c-16.4 2.96-36.5-5.06-57.4-23.2-3.38-2.93-6.72-6.08-10-9.42 12.2-11.7 26.4-21.5 41.9-28.8zm115-153l-62.3 25.8c-12.3-28.1-27.9-53.3-45.3-73.5 8.56-9.75 16-20.5 22.3-32.1 37 14.4 67.8 42.5 85.3 79.7zm-99.8-84.5c-5.16 9.21-11.2 17.8-18 25.7-3.45-3.49-6.95-6.78-10.5-9.86-10.6-9.23-21.3-16.2-31.6-20.8 5.76-0.643 11.6-0.977 17.4-0.977 14.7 0.001 29.1 2.04 42.7 5.88zm-141 28.6c-4.07 10.6-6.68 23-7.68 37.1-0.333 4.69-0.48 9.49-0.452 14.4-10.4-0.781-20.8-2.6-30.9-5.46 9.98-17.9 23.2-33.4 39-46zm-47.2 62.8c0.436-1.05 0.888-2.1 1.34-3.14 12.5 3.76 25.4 6.06 38.3 6.89 2.01 26.6 8.8 55.4 19.9 84l-62.3 25.8c-13.3-37-12.4-77 2.71-114zm3.05 127l62.3-25.8c12.3 28.1 27.9 53.3 45.3 73.5-8.56 9.75-16 20.5-22.3 32.1-37-14.4-67.8-42.5-85.3-79.7zm99.8 84.5c5.16-9.21 11.2-17.8 18-25.7 3.45 3.49 6.95 6.78 10.5 9.86 10.7 9.24 21.3 16.2 31.6 20.8-5.76 0.644-11.6 0.979-17.4 0.979-14.7 0-29.1-2.04-42.7-5.87zm141-28.6c1.52-3.96 2.84-8.18 3.95-12.7 2.88-11.6 4.27-24.7 4.18-38.8 10.4 0.779 20.7 2.59 30.8 5.44-9.78 17.5-22.9 33.2-39 46z"/>
</svg>
