<!-- <?xml version="1.0" encoding="UTF-8" standalone="no"?> -->
<svg xmlns:rdf="http://www.w3.org/1999/02/22-rdf-syntax-ns#" xmlns="http://www.w3.org/2000/svg" enable-background="new 0 0 64 64" xml:space="preserve" viewBox="0 0 512 512" version="1.1" y="0px" x="0px" xmlns:cc="http://creativecommons.org/ns#" xmlns:dc="http://purl.org/dc/elements/1.1/">
<path d="m472 0h-432c-22.4 0-40 17.6-40 40v314h512v-314c0-22.4-18-40-40-40z" fill="#0083e9"/><g fill="#e3e3e3" transform="matrix(1.16 0 0 1.16 -40.8 -50.9)"><path d="m226 127c-7.23 0-13.1 5.88-13.1 13.1 0 7.23 5.88 13.1 13.1 13.1 7.23 0 13.1-5.88 13.1-13.1 0-7.23-5.88-13.1-13.1-13.1zm0 21.9c-4.84 0-8.77-3.94-8.77-8.78s3.94-8.77 8.77-8.77c4.84 0 8.78 3.94 8.78 8.77 0 4.84-3.94 8.78-8.78 8.78z"/><path d="m308 156c-1.26-3.53-3.22-6.74-5.81-9.55-0.651-0.702-1.67-0.917-2.56-0.545l-5.45 2.33c-1.84-1.4-3.91-2.54-6.11-3.35l-0.571-5.49c-0.102-0.998-0.85-1.81-1.83-1.99-3.83-0.719-7.71-0.719-11.5 0-0.985 0.184-1.73 0.994-1.83 1.99l-0.575 5.49c-2.2 0.807-4.27 1.94-6.11 3.35l-2.91-1.25c0.627-0.315 1.09-0.907 1.2-1.63 0.562-3.8 0.562-7.65 0-11.5-0.152-1.01-0.985-1.79-2.01-1.87l-8.03-0.63c-0.622-2.14-1.47-4.2-2.54-6.13l5.23-6.13c0.664-0.78 0.706-1.92 0.093-2.74-2.29-3.08-5.01-5.81-8.09-8.09-0.833-0.613-1.96-0.575-2.75 0.0952l-6.13 5.23c-1.94-1.07-4-1.93-6.13-2.54l-0.634-8.03c-0.0806-1.02-0.858-1.86-1.87-2.01-3.8-0.571-7.65-0.571-11.4 0-1.01 0.15-1.79 0.983-1.87 2.01l-0.634 8.03c-2.13 0.617-4.19 1.47-6.13 2.54l-6.13-5.23c-0.787-0.666-1.92-0.704-2.75-0.0952-3.08 2.28-5.8 5.01-8.1 8.09-0.613 0.827-0.571 1.97 0.0974 2.75l5.23 6.13c-1.07 1.94-1.92 4-2.54 6.13l-8.03 0.63c-1.02 0.0801-1.86 0.856-2.01 1.87-0.571 3.8-0.571 7.65 0 11.5 0.152 1.01 0.985 1.79 2.01 1.87l8.03 0.63c0.617 2.14 1.47 4.19 2.54 6.13l-5.23 6.13c-0.668 0.78-0.71 1.92-0.0974 2.75 2.3 3.09 5.02 5.81 8.1 8.09 0.824 0.609 1.97 0.571 2.75-0.0949l6.13-5.24c1.94 1.07 4 1.93 6.13 2.54l0.634 8.03c0.0806 1.02 0.858 1.86 1.87 2.01 1.9 0.285 3.81 0.427 5.72 0.427s3.83-0.142 5.72-0.427c1.01-0.15 1.79-0.983 1.87-2.01l0.634-8.03c2.13-0.617 4.19-1.47 6.13-2.54l6.13 5.24c0.357 0.305 0.798 0.442 1.24 0.483-3.29-0.681-6.65-0.834-9.99-0.381-0.922 0.125-1.65 0.833-1.81 1.75l-0.917 5.55c-2.24 0.685-4.38 1.72-6.29 3.05l-5.24-2.66c-0.803-0.402-1.78-0.258-2.43 0.372-2.69 2.63-4.79 5.71-6.25 9.15-0.372 0.877-0.106 1.9 0.642 2.48l4.52 3.54c-0.486 2.18-0.626 4.44-0.406 6.66l-4.94 3.01c-0.812 0.494-1.19 1.47-0.93 2.38 1.02 3.57 2.74 6.87 5.09 9.8 0.571 0.708 1.52 0.962 2.38 0.658l5.53-2.04c1.73 1.53 3.72 2.8 5.86 3.73l0.232 5.6c0.038 0.935 0.689 1.73 1.59 1.96 2.41 0.604 4.85 0.907 7.31 0.907 1.32 0 2.65-0.087 3.97-0.262 0.922-0.123 1.66-0.831 1.81-1.75l0.913-5.55c2.25-0.687 4.38-1.72 6.29-3.05l5.24 2.65c0.807 0.404 1.78 0.262 2.43-0.372 2.69-2.63 4.79-5.71 6.25-9.15 0.372-0.877 0.106-1.9-0.642-2.48l-4.52-3.54c0.494-2.2 0.63-4.43 0.406-6.66l4.94-3.01c0.812-0.494 1.19-1.47 0.93-2.38-0.92-3.22-2.43-6.2-4.43-8.9l1.02-0.435c1.84 1.4 3.91 2.54 6.11 3.35l0.575 5.48c0.102 0.996 0.85 1.81 1.83 1.99 1.91 0.362 3.85 0.543 5.77 0.543 1.93 0 3.86-0.181 5.78-0.543 0.981-0.186 1.73-0.996 1.83-1.99l0.571-5.48c2.2-0.81 4.27-1.95 6.11-3.35l5.45 2.33c0.884 0.376 1.91 0.161 2.56-0.545 2.6-2.81 4.55-6.02 5.81-9.56 0.347-0.972-0.008-2.06-0.858-2.64l-4.74-3.22c0.342-2.15 0.342-4.35 0-6.51l4.74-3.22c0.854-0.581 1.2-1.67 0.858-2.64zm-55.8-0.988-0.873-1.02c1.07-1.94 1.92-3.99 2.54-6.13l2.75-0.216c-1.86 2.24-3.34 4.71-4.42 7.37zm-10.8 6.24c-0.731-0.621-1.79-0.695-2.6-0.192-2.39 1.5-5.01 2.59-7.77 3.22-0.939 0.216-1.63 1.01-1.7 1.97l-0.613 7.8c-2.22 0.216-4.46 0.216-6.69 0l-0.613-7.8c-0.0757-0.96-0.765-1.76-1.7-1.97-2.76-0.636-5.37-1.72-7.77-3.22-0.816-0.507-1.87-0.433-2.6 0.192l-5.95 5.09c-1.72-1.42-3.31-3-4.73-4.73l5.09-5.95c0.626-0.732 0.706-1.79 0.194-2.6-1.5-2.39-2.58-5.01-3.22-7.77-0.216-0.939-1.01-1.63-1.97-1.7l-7.8-0.613c-0.22-2.22-0.22-4.46 0-6.69l7.8-0.613c0.96-0.0762 1.76-0.765 1.97-1.7 0.639-2.76 1.72-5.37 3.22-7.77 0.512-0.816 0.431-1.87-0.194-2.6l-5.09-5.95c1.42-1.73 3.01-3.31 4.73-4.73l5.95 5.09c0.736 0.626 1.8 0.7 2.6 0.193 2.39-1.5 5.01-2.59 7.77-3.22 0.939-0.216 1.63-1.01 1.7-1.97l0.613-7.8c2.22-0.216 4.46-0.216 6.69 0l0.613 7.8c0.0757 0.959 0.765 1.76 1.7 1.97 2.76 0.636 5.37 1.72 7.77 3.22 0.812 0.503 1.87 0.429 2.6-0.193l5.95-5.09c1.73 1.42 3.31 3 4.73 4.73l-5.09 5.95c-0.621 0.731-0.702 1.79-0.19 2.6 1.5 2.38 2.58 5 3.22 7.77 0.216 0.936 1.01 1.62 1.97 1.7l7.8 0.613c0.216 2.22 0.216 4.46 0 6.69l-7.8 0.613c-0.96 0.0762-1.76 0.763-1.97 1.7-0.642 2.77-1.72 5.39-3.22 7.77-0.512 0.816-0.431 1.87 0.19 2.6l5.09 5.95c-1.42 1.73-3 3.31-4.73 4.73l-5.95-5.09zm7.2 9.7c3.08-2.29 5.8-5.01 8.09-8.1 0.274-0.369 0.372-0.807 0.387-1.24l0.353 0.24c-0.342 2.15-0.342 4.36 0 6.51l-4.74 3.22c-0.858 0.581-1.21 1.67-0.862 2.64 1.11 3.09 2.77 5.91 4.89 8.44l-0.641 0.237c-1.74-1.53-3.73-2.8-5.86-3.73l-0.232-5.6c-0.0382-0.935-0.689-1.73-1.59-1.96-0.378-0.0949-0.759-0.15-1.14-0.231 0.471 0.007 0.948-0.123 1.35-0.42zm11.2 22.9c-0.736 0.45-1.12 1.3-0.981 2.16 0.431 2.55 0.275 5.11-0.465 7.6-0.25 0.831 0.0377 1.73 0.719 2.26l4.3 3.36c-0.959 1.9-2.16 3.66-3.6 5.24l-5.01-2.54c-0.744-0.372-1.62-0.287-2.27 0.228-2.09 1.66-4.49 2.81-7.12 3.44-0.824 0.197-1.45 0.869-1.59 1.71l-0.871 5.3c-2.22 0.159-4.44 0.038-6.63-0.376l-0.22-5.34c-0.038-0.856-0.584-1.6-1.39-1.9-2.5-0.907-4.79-2.37-6.65-4.22-0.579-0.581-1.44-0.767-2.22-0.49l-5.28 1.95c-1.23-1.74-2.22-3.61-2.93-5.6l4.69-2.86c0.74-0.45 1.13-1.31 0.981-2.16-0.436-2.55-0.279-5.1 0.465-7.6 0.249-0.831-0.0344-1.73-0.719-2.27l-4.3-3.36c0.96-1.9 2.16-3.65 3.6-5.24l5.01 2.54c0.736 0.366 1.62 0.281 2.27-0.228 2.06-1.63 4.53-2.82 7.12-3.44 0.829-0.194 1.46-0.868 1.6-1.71l0.875-5.3c2.23-0.163 4.43-0.0357 6.63 0.376l0.22 5.35c0.038 0.856 0.584 1.61 1.39 1.9 2.49 0.903 4.79 2.36 6.65 4.22 0.583 0.583 1.46 0.776 2.22 0.49l5.28-1.95c1.23 1.74 2.21 3.61 2.93 5.6l-4.69 2.86zm38.8-34.9c-0.778 0.53-1.15 1.49-0.926 2.4 0.588 2.46 0.588 5.06 0 7.51-0.22 0.915 0.148 1.87 0.926 2.4l4.47 3.04c-0.824 1.86-1.89 3.59-3.19 5.19l-5.19-2.22c-0.799-0.342-1.72-0.193-2.38 0.378-1.98 1.73-4.4 3.05-6.99 3.82-0.879 0.26-1.52 1.03-1.61 1.94l-0.545 5.2c-2.18 0.271-4.38 0.271-6.56 0l-0.545-5.2c-0.093-0.913-0.732-1.68-1.61-1.94-2.59-0.763-5.01-2.08-6.99-3.82-0.664-0.575-1.58-0.721-2.38-0.378l-5.19 2.22c-1.3-1.6-2.37-3.34-3.2-5.2l4.48-3.04c0.782-0.529 1.15-1.49 0.93-2.4-0.588-2.46-0.588-5.05 0-7.51 0.22-0.917-0.148-1.88-0.93-2.4l-4.48-3.04c0.829-1.86 1.9-3.59 3.2-5.19l5.19 2.22c0.807 0.347 1.73 0.192 2.38-0.378 1.98-1.73 4.4-3.05 6.98-3.81 0.884-0.258 1.52-1.03 1.62-1.94l0.545-5.21c2.18-0.267 4.38-0.267 6.56 0l0.545 5.21c0.0927 0.915 0.731 1.68 1.61 1.94 2.59 0.759 5 2.08 6.98 3.81 0.651 0.571 1.58 0.725 2.38 0.378l5.19-2.22c1.3 1.6 2.37 3.34 3.19 5.19l-4.47 3.04z"/><path d="m353 201c-0.0689-0.848-0.433-1.65-1.02-2.26-0.135-0.14-12.9-13.5-20.8-24.9 4.09-14.7 2.39-28.1 0.859-35.2 2.21-0.147 4.54-0.777 6.14-2.47 0.979-1.03 2.46-3.33 1.41-7.11-10.1-35.9-32.3-38.3-38.1-38.3h-0.0835c-4.77-2.68-25.6-13.3-54.3-13.3-28.8 0.0731-88.2 18.5-88.2 74.8 0 32 10.2 48.5 19.1 63.1 6.73 10.9 12.5 20.4 12 34.6-1.08 26.2-21.5 60.1-21.7 60.4-0.696 1.15-0.721 2.59-0.0586 3.76 0.659 1.17 1.9 1.9 3.25 1.9h111c1.15 0 2.24-0.537 2.95-1.45 0.706-0.914 0.95-2.1 0.659-3.22-1.37-5.23-3.77-20.3 1.46-27.2 1.85-2.43 4.57-3.64 8.32-3.7 16.3-0.251 26.3-2.98 31.3-8.6 4.83-5.4 4.2-12.1 3.64-18-0.211-2.22-0.411-4.34-0.328-6.27 2.36-1.92 3.7-3.94 4.08-6.14 0.411-2.41-0.426-4.37-1.33-5.83 4.14-1.25 5.9-3.66 6.64-5.52 1.65-4.14-0.0876-8.79-2.75-13.4 16.1-5.51 15.8-14.6 15.7-15.7zm-22.4 9.9c-1.17 0.289-2.13 1.13-2.57 2.25-0.444 1.12-0.313 2.39 0.35 3.4 1.39 2.11 5.6 8.55 4.7 10.8-0.204 0.51-1.09 0.983-2.44 1.3-1.43 0.335-4.76 1.12-5.82 3.98-0.954 2.59 0.6 4.7 1.53 5.97 0.335 0.457 0.961 1.31 0.987 1.6 0 0-0.193 0.824-2.39 2.32-0.866 0.593-1.45 1.52-1.59 2.56-0.441 3.17-0.135 6.38 0.157 9.48 0.477 5.01 0.888 9.33-1.77 12.3-3.45 3.85-12.1 5.9-25.9 6.12-6.02 0.091-10.9 2.39-14.1 6.65-6.18 8.14-4.94 21.8-3.71 28.9h-100c6.08-11.2 18.6-36.6 19.5-58.3 0.677-16.5-6-27.3-13.1-38.8-8.46-13.7-18-29.3-18-59.2 0-50.8 54.4-67.3 80.7-67.4h0.273c29.8 0 50.9 12.7 51.1 12.8 0.691 0.42 1.5 0.6 2.32 0.528 0.178-0.0417 21.9-1.81 31.6 32.8l0.003 0.0182c-0.987 0.2-2.95 0.12-4.49-0.217-1.32-0.304-2.69 0.145-3.59 1.15-0.903 1-1.19 2.42-0.757 3.69 0.0619 0.179 5.99 18.1-0.0362 37.7-0.331 1.07-0.157 2.24 0.47 3.17 6.8 10.1 17.5 21.9 21.3 25.9-0.812 1.85-3.79 5.74-14.6 8.42z"/></g><path d="m118 479-20.7 33h317l-20.7-32.6h-100-76.1-100z" fill="#00355d"/><path d="m0 353c0 22.4 17.6 40 40 40h432c22 0 40-17 40-40z" fill="#00355d"/><path d="m218 393v87h76.1v-87z" fill="#091b29"/></svg>
