<!-- <?xml version="1.0" encoding="UTF-8" standalone="no"?> -->
<svg enable-background="new 0 0 470 470" xmlns="http://www.w3.org/2000/svg" xmlns:xlink="http://www.w3.org/1999/xlink" version="1.1" viewBox="0 0 470 470">
<path d="m432 228h-77c-0.611-37.4-5.78-73.6-14.8-106h50.5c4.14 0 7.5-3.36 7.5-7.5s-3.36-7.5-7.5-7.5h-55.1c-8.02-24.2-18.3-45.5-30.6-62.7-2.41-3.37-7.09-4.15-10.5-1.74-3.37 2.41-4.15 7.09-1.74 10.5 10.6 14.9 19.7 33.2 27 53.9h-77.8v-69.3c0-4.14-3.36-7.5-7.5-7.5s-7.5 3.36-7.5 7.5v69.3h-77.8c7.28-20.7 16.3-39.1 27-53.9 2.41-3.37 1.63-8.06-1.74-10.5-3.37-2.41-8.06-1.62-10.5 1.74-12.2 17.1-22.5 38.5-30.6 62.7h-55.1c-4.14 0-7.5 3.36-7.5 7.5s3.36 7.5 7.5 7.5h50.5c-8.99 32.1-14.2 68.3-14.8 106h-77c-4.14 0-7.5 3.36-7.5 7.5s3.36 7.5 7.5 7.5h77c0.611 37.4 5.78 73.6 14.8 106h-50.5c-4.14 0-7.5 3.36-7.5 7.5s3.36 7.5 7.5 7.5h55.1c8.02 24.2 18.3 45.5 30.6 62.7 1.46 2.05 3.77 3.14 6.11 3.14 1.51 0 3.03-0.454 4.35-1.4 3.37-2.41 4.15-7.09 1.74-10.5-10.6-14.9-19.7-33.2-27-53.9h77.8v69.3c0 4.14 3.36 7.5 7.5 7.5s7.5-3.36 7.5-7.5v-69.3h77.8c-7.28 20.7-16.4 39.1-27 53.9-2.41 3.37-1.63 8.06 1.74 10.5 1.32 0.943 2.84 1.4 4.35 1.4 2.34 0 4.65-1.09 6.11-3.14 12.2-17.1 22.5-38.5 30.6-62.7h55.1c4.14 0 7.5-3.36 7.5-7.5s-3.36-7.5-7.5-7.5h-50.5c8.99-32.1 14.2-68.3 14.8-106h77c4.14 0 7.5-3.36 7.5-7.5s-3.36-7.5-7.5-7.5zm-107-106c9.31 31.7 14.7 68 15.3 106h-98v-106h82.6zm-180 0h82.6v106h-98c0.632-37.7 6.01-74 15.3-106zm0 226c-9.31-31.7-14.7-68-15.3-106h98v106h-82.6zm180 0h-82.6v-106h98c-0.632 37.7-6.01 74-15.3 106z"/>
<path d="m401 68.8c-44-44.4-103-68.8-166-68.8s-122 24.4-166 68.8-69 103-69 166c0 46.3 13.4 90.9 38.8 129l-28.7 86.1c-0.898 2.7-0.197 5.67 1.81 7.68s4.98 2.71 7.68 1.81l86.2-28.7c38 26 83 39 129 39 62.8 0 122-24.4 166-68.8s69-103 69-166c0-63-24-122-69-166zm-166 386c-44.5 0-87.4-13.2-124-38.2-1.26-0.862-2.74-1.31-4.23-1.31-0.797 0-1.6 0.127-2.37 0.385l-76 25 25.1-75.4c0.741-2.22 0.399-4.67-0.923-6.6-25-37-38.2-80-38.2-124 0-121 99-220 220-220s220 98.7 220 220c0 121-99 220-220 220z"/>
</svg>
