<!--<?xml version="1.0" encoding="UTF-8" standalone="no"?>-->
<svg style="enable-background:new 0 0 491.86 491.86" xmlns="http://www.w3.org/2000/svg" xml:space="preserve" viewBox="0 0 491.86 491.86" version="1.1" y="0px" x="0px" xmlns:xlink="http://www.w3.org/1999/xlink">
<polygon points="250 206 0 206 0 232 21.4 232 21.4 476 198 476 198 232 250 232"/>
<path d="m380 327c0.046 0 0.129 0.03 0.183 0.03 32.6 0.951 51.3-8.78 54.2-34.6l13.2-119c2.47-22.2-15.2-39.1-32.9-45.6l-0.143-0.046s-6.3-2.05-12.1-2.84c-6.01-0.801-11.9 0.282-11.9 0.282-13.8 1.61-27.4 11.4-27.4 11.4-25.4 18.1-64.8 22-117 11.6-13.2-2.65-26 5.95-28.6 19.1-2.62 13.2 5.94 26 19.1 28.6 21.9 4.38 42.3 6.54 61.2 6.54 17.1 0 32.5-1.89 46.9-5.5l-0.115 1.68-8.44 75.9c-44.2 1.6-72.1 10.7-83 27.2-14.8 22.5-38.8 113-45.8 141-3.62 14.4 5.11 28.9 19.5 32.6 2.18 0.549 4.39 0.823 6.56 0.823 12 0 23-8.12 26-20.3 12.3-49 29.4-99.7 37.1-116 7-14 49-15 84-13z"/>
<circle cx="396" r="54.3" cy="67.8"/>
<path d="m485 275l7.21-93.5c0.019-0.53-0.18-1.04-0.548-1.43-0.369-0.382-0.876-0.598-1.41-0.598h-29.7c-1.05 0-1.92 0.834-1.96 1.89l-6.71 93.6c-0.883 28.8-9.38 64.3-57.8 64.3-0.687 0-53.6-0.119-53.6-0.119h-0.001c-0.52 0-1.02 0.206-1.38 0.572-0.366 0.367-0.573 0.866-0.573 1.38v28.9c0 1.08 0.876 1.96 1.96 1.96l48.6-0.002v66.5h-15.3c-20 0-36.9 17.6-36.9 38.3 0 1.08 0.876 1.96 1.96 1.96h19.3c1.08 0 1.96-0.875 1.96-1.96 0-7.64 6.27-14.1 13.7-14.1h63.3c7.43 0 13.7 6.46 13.7 14.1 0 1.08 0.877 1.96 1.96 1.96h19.3c1.08 0 1.96-0.875 1.96-1.96 0-20.8-16.9-38.3-36.9-38.3h-15.3v-70c48-3 59-51 64-95z"/>
<path d="m204 177h-91.7l-31.2-114c-0.219-0.8-1.04-1.27-1.84-1.05l-16.6 4.52c-0.384 0.105-0.71 0.358-0.907 0.703-0.198 0.346-0.25 0.755-0.145 1.14l34.7 128c0.178 0.652 0.771 1.1 1.45 1.1h106c0.829 0 1.5-0.671 1.5-1.5v-17.1l-2-2z"/>
</svg>
